<?xml version="1.0" standalone="no"?>
<!DOCTYPE svg PUBLIC "-//W3C//DTD SVG 20010904//EN"
 "http://www.w3.org/TR/2001/REC-SVG-20010904/DTD/svg10.dtd">
<svg version="1.0" xmlns="http://www.w3.org/2000/svg"
 width="1080.000000pt" height="1080.000000pt" viewBox="0 0 1080.000000 1080.000000"
 preserveAspectRatio="xMidYMid meet">
<metadata>
Created by potrace 1.11, written by Peter Selinger 2001-2013
</metadata>
<g transform="translate(0.000000,1080.000000) scale(0.100000,-0.100000)"
fill="#000000" stroke="none">
<path d="M0 8185 c0 -1753 3 -2615 10 -2615 6 0 23 18 38 39 15 22 37 44 50
50 28 14 109 14 117 1 8 -13 35 -1 35 17 0 8 5 11 10 8 6 -4 8 -11 5 -16 -9
-13 27 2 50 21 29 26 92 53 104 45 6 -3 11 -2 11 4 0 6 7 8 15 5 8 -4 15 -2
15 3 0 5 35 5 83 0 45 -4 88 -8 95 -9 6 -1 10 -4 7 -6 -7 -8 28 -31 48 -32 9
0 17 -4 17 -9 0 -15 58 -31 64 -18 5 9 7 9 12 -1 3 -6 10 -9 16 -6 5 3 50 6
99 5 68 -1 102 -7 139 -23 28 -12 50 -25 50 -29 0 -4 15 -17 33 -28 24 -14 38
-35 51 -73 10 -29 23 -57 27 -63 5 -5 9 -18 10 -30 0 -11 3 -14 6 -7 4 11 8
10 22 -1 16 -14 68 -32 84 -29 4 1 7 -3 7 -9 0 -6 7 -8 17 -5 10 4 23 -1 35
-14 10 -11 25 -20 33 -20 8 0 15 -4 15 -9 0 -5 16 -15 35 -22 19 -7 35 -19 35
-27 0 -8 6 -12 15 -8 9 3 15 0 15 -10 0 -8 -5 -12 -10 -9 -11 7 -9 -23 3 -41
4 -7 -2 -23 -13 -36 -11 -14 -17 -28 -14 -31 8 -7 -55 -10 -190 -7 -26 0 -54
-4 -62 -11 -13 -10 -28 -50 -39 -99 -10 -51 -31 -119 -38 -126 -4 -4 -7 -13
-7 -21 0 -21 -70 -80 -128 -108 -64 -30 -113 -32 -217 -5 -43 11 -87 20 -97
20 -11 0 -16 5 -13 10 16 26 -48 -2 -99 -44 -75 -61 -80 -63 -162 -64 -66 0
-76 2 -120 34 -27 18 -66 42 -86 51 -21 10 -39 28 -42 39 -7 27 -30 33 -123
33 l-73 0 0 -2424 0 -2425 771 0 c723 0 773 1 785 18 7 9 14 27 14 40 0 15 4
21 12 16 8 -5 9 -2 3 12 -10 22 -10 57 -1 81 6 15 8 15 16 3 7 -11 8 -5 5 18
-2 17 1 32 6 32 6 0 9 6 7 13 -4 19 31 112 50 133 9 10 29 38 44 60 15 23 38
54 53 70 16 17 23 34 19 43 -6 16 -22 80 -43 174 -14 59 -14 104 -1 112 17 10
11 51 -10 70 -11 10 -17 21 -15 25 7 11 -5 40 -16 40 -4 0 -16 -13 -25 -29 -9
-16 -32 -36 -50 -45 -19 -8 -34 -21 -34 -27 0 -7 -11 -9 -30 -5 -24 4 -30 2
-30 -12 -1 -16 -1 -16 -14 1 -17 22 -22 22 -30 -5 -6 -22 -7 -22 -18 -3 -11
19 -11 19 -19 0 -7 -19 -8 -19 -15 2 -9 31 -22 29 -19 -2 2 -14 -1 -25 -6 -25
-5 0 -9 7 -9 16 0 11 -5 14 -16 10 -9 -3 -19 -6 -22 -6 -4 0 0 -5 8 -11 11 -7
6 -8 -20 -3 -19 3 -37 9 -40 13 -3 3 -25 6 -50 6 -31 0 -44 4 -42 13 2 14 -14
16 -23 2 -3 -6 -13 -10 -21 -10 -8 0 -12 5 -9 10 5 9 -24 15 -48 11 -5 -1 -6
3 -3 8 4 5 -1 17 -10 26 -14 13 -19 14 -25 3 -7 -10 -11 -10 -21 0 -10 10 -10
15 2 22 8 5 11 12 8 16 -4 3 -14 -1 -24 -10 -13 -14 -19 -14 -32 -4 -12 10
-14 10 -8 1 4 -7 3 -13 -2 -13 -13 0 -22 24 -23 58 0 24 -1 25 -9 7 l-9 -20
-1 20 c-1 19 -2 18 -10 -2 -11 -27 -22 -30 -18 -6 2 12 -3 17 -14 15 -12 -2
-18 4 -18 17 0 11 -4 22 -10 26 -5 3 -6 13 -3 23 6 14 4 15 -9 5 -18 -15 -28
-7 -28 21 0 15 -3 17 -12 8 -16 -16 -28 -15 -28 3 0 8 -4 15 -10 15 -5 0 -12
11 -16 25 -3 14 -10 22 -15 19 -5 -3 -6 9 -3 26 4 19 2 30 -5 30 -6 0 -11 -6
-12 -12 0 -7 -6 -2 -12 12 -6 14 -16 28 -22 33 -6 4 -1 10 13 13 12 4 22 7 22
8 0 1 -8 18 -18 37 -15 30 -20 33 -31 22 -17 -18 -20 -14 -25 28 -3 19 -5 36
-6 39 -1 3 -1 17 0 32 2 31 -16 38 -23 11 -4 -14 -5 -13 -6 4 0 12 3 24 7 27
5 3 7 19 4 35 -2 17 -8 28 -13 25 -5 -3 -9 2 -9 10 0 8 8 20 18 25 9 6 11 11
5 11 -8 0 -13 13 -13 31 0 17 -4 28 -10 24 -6 -4 -10 7 -10 25 0 17 3 29 8 26
8 -4 14 46 15 124 0 25 2 37 4 27 7 -26 23 -10 23 23 0 16 7 30 16 34 12 5 15
14 10 36 -4 21 -2 30 8 30 8 0 11 10 8 30 -3 21 0 32 12 36 9 3 16 15 16 26 0
23 44 91 53 81 4 -3 7 3 7 14 0 12 14 34 31 50 18 15 40 36 50 45 11 10 23 18
29 18 5 0 10 9 10 20 0 11 5 20 10 20 6 0 10 -4 10 -10 0 -5 5 -10 10 -10 6 0
10 9 10 21 0 11 5 17 10 14 6 -3 10 4 10 15 0 16 4 20 16 16 20 -8 64 19 64
39 0 8 6 12 14 9 8 -3 17 -1 21 5 3 6 17 11 30 11 12 0 26 7 29 16 3 9 16 14
28 13 13 -1 31 1 41 6 9 4 28 4 41 1 14 -3 27 -3 29 1 12 19 264 -4 291 -26 9
-7 16 -10 16 -7 0 4 18 -3 40 -15 22 -13 40 -27 40 -33 0 -6 5 -4 10 4 9 13
12 13 21 -3 5 -9 17 -17 24 -17 8 0 15 -4 15 -10 0 -5 5 -10 12 -10 6 0 8 3 5
7 -4 3 -2 12 4 20 7 8 9 29 5 54 -5 29 -3 38 5 34 7 -5 10 4 8 26 -5 71 1 120
13 113 8 -5 9 4 4 34 -6 39 6 59 17 30 3 -7 3 4 1 25 -2 21 -1 44 3 50 4 6 8
21 9 34 2 13 12 36 23 51 11 16 23 40 26 53 7 29 71 102 97 112 12 4 15 12 11
23 -4 12 -3 15 5 10 7 -4 12 -3 12 1 0 5 18 30 40 57 22 26 40 53 40 60 0 8
-3 8 -8 0 -4 -6 -30 -10 -59 -10 -35 0 -58 -6 -71 -17 -22 -20 -72 -23 -72 -4
0 8 -2 9 -8 1 -9 -15 -65 -15 -74 0 -5 7 -8 4 -8 -8 0 -13 -5 -16 -16 -12 -9
4 -23 1 -30 -5 -10 -8 -14 -8 -14 0 0 6 -7 11 -15 11 -8 0 -15 7 -15 16 0 10
-6 14 -14 11 -9 -4 -17 1 -19 11 -3 12 -5 11 -6 -5 -1 -30 -17 -38 -24 -12 -3
12 -10 18 -16 14 -6 -3 -11 1 -11 9 0 12 -5 14 -25 6 -20 -8 -29 -5 -48 13
-13 12 -21 30 -19 40 3 16 1 17 -16 6 -16 -10 -23 -10 -36 0 -9 8 -16 20 -16
27 0 7 -13 23 -30 36 -16 12 -30 28 -30 35 0 7 -10 13 -21 13 -18 0 -21 4 -16
29 4 21 2 31 -9 35 -8 3 -13 10 -9 15 3 5 1 12 -4 15 -5 3 -7 15 -4 26 4 14 0
20 -11 20 -9 0 -23 16 -32 37 -18 44 -29 173 -14 173 6 0 10 7 10 15 0 8 -6
12 -14 9 -12 -5 -14 7 -14 60 0 36 4 66 9 66 5 0 9 7 9 15 0 8 -4 15 -9 15 -6
0 -8 17 -6 38 1 20 3 42 4 48 1 7 11 14 24 18 18 5 19 8 7 15 -10 7 -17 6 -22
-2 -4 -7 -8 12 -8 41 0 29 4 51 9 48 8 -5 13 50 13 132 0 12 4 22 9 22 5 0 9
11 9 24 0 13 7 26 15 30 8 3 12 12 9 20 -3 8 1 34 9 58 8 23 18 65 21 92 4 27
11 57 16 67 6 10 10 26 10 36 0 10 11 41 25 68 13 28 25 59 25 70 0 17 2 18
11 5 8 -12 9 -10 4 7 -4 14 3 42 19 75 13 29 34 80 46 113 29 78 92 205 102
205 4 0 8 11 8 25 0 14 4 25 9 25 5 0 13 9 16 20 3 11 10 20 16 20 14 0 49 33
49 47 0 7 9 18 20 25 11 7 20 17 20 21 0 5 18 32 40 59 22 28 40 56 40 62 0 6
-9 47 -19 91 -41 165 -52 225 -45 236 4 8 3 9 -4 5 -8 -5 -12 0 -12 13 0 12 5
21 10 21 6 0 10 5 10 10 0 6 -7 10 -15 10 -8 0 -15 3 -16 8 -2 19 -9 177 -12
266 -3 77 0 99 11 103 11 5 11 7 0 14 -20 13 -14 97 9 116 10 8 12 12 6 8 -8
-4 -13 0 -13 9 0 25 20 117 40 181 10 33 21 72 25 88 5 25 35 40 35 17 0 -5 5
-10 10 -10 7 0 7 6 0 20 -11 21 -4 66 14 89 6 8 16 30 21 50 6 21 20 41 35 48
17 9 24 19 22 34 -2 12 10 40 27 64 17 24 31 47 31 52 0 5 13 19 29 31 16 12
38 35 47 52 10 16 24 30 30 30 9 0 55 50 80 88 1 2 9 5 18 6 9 1 24 11 35 22
26 27 64 59 81 68 25 12 54 30 87 54 17 12 36 22 42 22 6 0 11 5 11 10 0 6 6
10 13 10 6 1 30 9 52 20 46 22 65 25 65 9 0 -23 80 72 81 96 2 32 2 33 22 79
9 21 17 44 17 52 0 7 4 16 10 19 6 3 10 15 10 26 0 24 92 217 117 244 10 11
27 38 38 59 10 21 36 56 57 78 21 22 38 46 38 52 0 12 175 194 254 264 26 23
52 39 58 36 6 -4 8 -3 5 2 -3 6 20 28 51 49 31 22 65 49 77 60 12 11 41 30 66
43 24 12 58 31 74 41 17 10 33 16 38 14 4 -3 6 1 5 7 -2 7 11 17 29 24 18 6
42 19 53 29 11 9 26 17 33 17 6 0 23 9 37 20 14 11 31 20 38 20 8 0 50 16 93
35 44 19 87 35 95 35 8 0 23 5 34 10 11 6 28 14 39 19 10 5 35 13 55 16 20 4
36 12 36 18 0 6 3 7 7 4 3 -4 11 -3 17 2 21 16 64 22 68 9 3 -8 9 -4 17 10 8
14 21 22 39 22 15 0 43 4 62 10 25 7 36 7 42 -3 5 -8 8 -7 8 6 0 11 8 17 25
18 24 1 35 3 53 9 4 1 17 1 29 1 11 -1 24 3 28 8 3 6 11 11 16 11 6 0 7 -4 4
-10 -3 -5 1 -10 9 -10 9 0 16 7 16 16 0 13 7 15 35 11 19 -3 37 -2 39 2 3 4
43 11 88 15 46 3 93 9 105 12 15 4 22 1 26 -13 4 -16 5 -16 6 0 1 14 11 17 59
18 61 1 175 6 285 12 51 3 67 1 67 -9 0 -8 5 -14 10 -14 6 0 10 5 10 10 0 6
24 8 63 5 34 -3 122 -10 195 -15 156 -11 216 -24 208 -46 -3 -8 -1 -14 4 -14
6 0 10 6 10 13 0 8 12 14 28 15 15 0 52 10 81 22 30 11 60 19 67 16 7 -3 23 3
36 13 27 21 97 43 110 35 5 -3 17 1 26 9 9 9 22 16 27 18 6 1 15 3 20 4 39 11
174 27 240 28 44 1 83 6 87 11 4 6 12 5 20 -2 9 -7 18 -8 24 -2 6 6 22 6 42 1
18 -6 32 -6 32 -1 0 14 86 6 104 -10 14 -11 21 -11 41 0 13 7 31 9 42 5 10 -4
43 -9 73 -11 106 -7 140 -15 140 -30 0 -8 5 -14 10 -14 6 0 10 5 10 10 0 6 7
10 16 10 9 0 12 -5 8 -12 -5 -8 -2 -9 11 -4 28 11 85 -4 86 -23 0 -10 2 -11 6
-3 5 14 40 16 45 3 2 -5 17 -12 33 -15 69 -13 172 -42 195 -56 14 -8 28 -15
33 -16 4 -1 9 -3 12 -4 3 -1 8 -3 13 -4 4 -1 21 -10 39 -19 18 -9 42 -17 55
-17 13 0 34 -9 48 -20 14 -11 30 -20 36 -20 6 0 22 -8 35 -19 13 -10 35 -21
49 -25 43 -12 73 -29 124 -68 27 -21 55 -38 62 -38 8 0 28 -13 46 -30 17 -16
35 -31 39 -31 5 -1 13 -2 18 -3 5 0 31 -20 57 -43 26 -24 50 -43 54 -43 18 0
290 -262 290 -279 0 -15 39 -43 49 -36 6 3 17 3 23 -1 7 -5 19 -9 28 -10 8 -1
58 -10 110 -18 90 -16 124 -26 86 -26 -9 0 -15 -4 -12 -9 4 -6 20 -6 41 0 24
7 54 6 93 -1 31 -7 77 -11 100 -10 26 0 54 -6 68 -15 14 -9 28 -14 32 -11 11
7 193 -30 234 -48 21 -9 45 -16 55 -16 27 0 165 -75 156 -84 -5 -5 2 -5 15 -2
12 4 22 3 22 -2 0 -6 12 -13 27 -17 14 -3 38 -15 51 -26 14 -10 31 -19 38 -19
8 0 14 -4 14 -10 0 -5 6 -10 14 -10 8 0 17 -7 20 -16 4 -9 9 -14 13 -11 11 11
45 -14 39 -29 -4 -11 -1 -14 13 -9 12 4 21 0 25 -11 4 -9 9 -14 13 -11 10 10
63 -22 63 -39 0 -8 8 -18 18 -21 34 -14 97 -73 97 -92 0 -8 14 -22 30 -31 21
-12 33 -28 40 -57 6 -24 15 -38 22 -36 7 3 13 -2 13 -9 0 -8 8 -23 19 -34 20
-22 65 -134 56 -142 -3 -3 1 -12 9 -21 15 -17 27 -73 29 -133 0 -21 5 -38 9
-38 12 0 10 -44 -3 -77 -6 -15 -13 -44 -16 -63 -2 -19 -15 -57 -28 -84 -14
-28 -25 -56 -25 -64 0 -7 -4 -10 -10 -7 -5 3 -10 1 -10 -5 0 -7 -14 -32 -30
-57 -17 -24 -30 -47 -30 -50 0 -3 -24 -29 -54 -58 -48 -47 -114 -85 -117 -67
-1 4 -4 -3 -7 -16 -4 -13 -10 -22 -14 -20 -3 2 -17 -7 -30 -19 -13 -12 -35
-25 -50 -28 -16 -4 -28 -10 -28 -14 0 -7 -84 -36 -130 -45 -76 -15 -168 -40
-191 -52 -28 -15 -41 -10 -32 12 3 8 0 14 -6 14 -6 0 -11 -6 -12 -12 0 -7 -4
-4 -9 7 -5 11 -9 15 -9 9 -3 -36 -73 -73 -98 -52 -10 8 -13 6 -13 -6 0 -9 -7
-16 -15 -16 -8 0 -15 -7 -15 -15 0 -8 6 -15 14 -15 8 0 16 -6 19 -14 9 -23 89
-73 129 -80 37 -7 80 -24 128 -51 14 -8 37 -15 52 -15 20 0 29 -7 36 -27 7
-18 11 -22 11 -10 1 21 17 22 25 1 3 -8 10 -13 14 -10 13 8 116 -33 125 -50 4
-8 23 -14 43 -14 24 0 43 -8 60 -25 14 -14 32 -25 40 -25 9 0 22 -7 30 -15 9
-8 24 -15 34 -15 11 0 23 -7 28 -16 5 -9 15 -15 23 -12 17 6 81 -51 72 -65 -4
-6 0 -8 9 -5 8 4 28 -3 44 -13 16 -11 39 -24 52 -29 12 -5 22 -14 22 -19 0 -5
18 -16 40 -25 22 -9 40 -23 40 -31 0 -8 12 -22 28 -32 27 -17 100 -83 174
-158 25 -25 37 -46 35 -57 -3 -11 0 -18 8 -18 7 0 16 -12 20 -27 3 -16 24 -48
46 -73 42 -47 69 -87 51 -76 -6 3 6 -27 26 -66 19 -40 41 -93 48 -118 10 -38
12 41 13 481 l0 527 -32 5 c-18 3 -41 7 -52 9 -11 2 -23 7 -26 12 -4 4 -16 3
-27 -3 -11 -6 -42 -11 -68 -11 -38 0 -51 5 -71 26 -15 16 -23 34 -20 45 3 11
1 21 -3 24 -4 3 -6 15 -2 27 3 13 1 19 -5 15 -5 -4 -19 2 -30 13 -20 18 -22
18 -37 1 -9 -10 -14 -21 -11 -24 3 -4 2 -5 -1 -2 -4 2 -21 -7 -39 -20 -17 -14
-37 -25 -43 -25 -6 0 -12 -4 -14 -10 -1 -5 -31 -12 -66 -15 -59 -6 -65 -4
-102 25 -55 44 -60 76 -18 140 34 52 124 124 172 136 15 3 37 20 51 38 14 17
30 37 36 44 5 6 9 24 8 40 -7 154 -4 201 19 231 12 16 22 35 22 41 0 5 5 10
11 10 6 0 9 9 6 20 -6 23 8 27 17 5 5 -14 33 -11 46 4 9 12 61 31 81 31 13 0
25 12 35 35 8 19 20 35 27 35 6 0 32 14 56 30 24 17 52 30 63 30 17 0 18 57
18 1865 l0 1865 -5400 0 -5400 0 0 -2615z m6510 2320 c24 -9 54 -24 65 -34 40
-37 77 -48 141 -44 48 4 70 1 104 -16 24 -12 47 -21 52 -21 15 0 53 -45 63
-75 6 -16 16 -29 23 -27 7 1 12 -3 12 -10 0 -7 15 -25 33 -40 32 -28 32 -28
48 -8 15 17 18 18 29 5 10 -12 9 -15 -4 -15 -20 0 -20 -7 -1 -26 8 -9 15 -12
15 -8 0 4 12 -4 28 -18 25 -23 53 -38 69 -37 3 1 10 -7 15 -16 6 -10 16 -14
29 -10 11 4 19 2 19 -5 0 -7 6 -10 14 -7 18 7 111 -38 150 -73 16 -14 32 -24
37 -23 4 2 6 -4 3 -12 -4 -8 -1 -15 7 -15 7 0 9 -3 6 -6 -3 -4 -1 -16 4 -27
14 -24 13 -120 0 -146 -6 -10 -34 -31 -63 -46 -47 -25 -59 -27 -131 -22 -60 4
-86 10 -115 29 -45 30 -105 37 -95 11 4 -10 2 -14 -4 -10 -7 4 -11 -11 -11
-41 -2 -62 -21 -107 -67 -157 -20 -22 -43 -52 -51 -67 -7 -14 -22 -29 -31 -32
-105 -31 -182 -47 -259 -52 -82 -6 -95 -5 -130 15 l-39 22 -84 -41 c-70 -35
-96 -42 -165 -47 -140 -10 -246 17 -341 86 -22 16 -42 29 -45 29 -20 -1 -30 4
-30 17 0 8 -4 15 -10 15 -5 0 -10 -4 -10 -9 0 -6 -8 -10 -17 -10 -186 -4 -245
18 -303 112 -26 41 -30 57 -31 127 -1 44 -5 83 -10 86 -5 3 -9 18 -9 35 0 32
-3 34 -31 19 -27 -15 -130 -24 -182 -16 -30 5 -57 18 -81 40 -32 28 -36 37
-31 64 3 18 13 41 23 51 9 10 26 31 37 46 11 15 51 43 88 61 37 18 74 38 82
44 8 7 15 9 15 5 0 -4 6 -3 13 3 6 5 31 13 54 17 23 4 53 15 66 25 13 10 35
22 49 25 29 7 64 50 74 89 3 14 9 24 13 21 11 -6 71 52 71 69 0 9 6 13 13 11
7 -3 30 4 52 15 21 11 54 20 71 20 18 0 34 5 36 11 3 9 10 9 26 0 14 -7 22 -8
22 -2 0 6 6 9 13 6 6 -2 38 -6 69 -9 31 -3 60 -7 65 -8 5 -2 38 12 74 30 103
52 283 65 389 27z m3650 -625 c0 -5 -8 -10 -17 -11 -15 0 -15 -2 2 -9 25 -11
44 -12 28 -2 -8 5 -9 13 -3 22 8 13 13 13 30 2 11 -7 26 -10 32 -6 7 5 9 2 5
-9 -3 -9 -1 -19 5 -23 6 -4 8 -3 5 3 -4 6 5 18 19 28 23 15 27 15 43 1 10 -9
22 -16 28 -16 6 0 13 -7 17 -15 3 -10 16 -14 37 -13 23 2 35 -2 43 -17 6 -11
14 -22 18 -25 3 -3 10 -18 14 -34 4 -19 9 -24 15 -15 4 7 5 18 2 24 -3 5 6 -2
21 -16 20 -19 29 -40 35 -82 4 -32 4 -57 -1 -57 -4 0 -8 8 -9 18 0 14 -2 14
-8 -3 -5 -12 -3 -25 6 -33 17 -17 8 -51 -20 -73 -11 -9 -17 -21 -13 -27 3 -5
-1 -12 -9 -16 -9 -3 -15 0 -15 10 0 8 -5 12 -11 8 -6 -3 -9 -15 -6 -25 4 -14
0 -19 -15 -19 -10 0 -17 -4 -14 -9 3 -5 -1 -14 -9 -21 -8 -7 -15 -10 -15 -6 0
3 -22 -17 -50 -45 -27 -28 -50 -55 -50 -60 0 -5 -7 -9 -16 -9 -8 0 -12 -4 -9
-10 3 -5 2 -10 -3 -10 -4 0 -14 -35 -20 -77 -17 -113 -18 -135 -5 -168 6 -17
14 -47 18 -68 6 -37 59 -107 73 -98 4 2 13 -7 19 -20 7 -13 13 -18 13 -11 0 6
5 12 10 12 6 0 10 -7 10 -15 0 -8 6 -15 13 -15 8 0 31 -16 51 -36 37 -36 37
-37 26 -83 -6 -25 -12 -55 -14 -66 -6 -31 -18 -59 -30 -67 -7 -5 -6 -8 4 -9 8
0 4 -4 -10 -8 -14 -4 -31 -19 -38 -35 -9 -17 -19 -25 -28 -22 -8 3 -14 -1 -14
-8 0 -8 -12 -16 -27 -19 -33 -6 -44 0 -23 13 17 11 9 13 -14 4 -9 -3 -16 -12
-16 -20 0 -10 -7 -13 -25 -8 -15 4 -25 2 -25 -5 0 -6 5 -11 10 -11 6 0 10 -5
10 -10 0 -6 -7 -6 -19 2 -10 6 -17 18 -14 25 3 7 -2 13 -10 13 -9 0 -22 7 -31
15 -10 10 -17 12 -21 4 -4 -6 2 -13 14 -16 12 -3 21 -10 21 -15 0 -6 -7 -7
-16 -4 -8 3 -12 2 -9 -3 3 -5 1 -12 -5 -16 -6 -3 -13 1 -16 9 -8 21 -44 21
-44 0 0 -8 -4 -13 -9 -9 -5 3 -12 1 -15 -4 -8 -13 -56 11 -57 29 -1 11 -3 10
-6 -2 -6 -22 -17 -23 -38 -2 -10 10 -24 14 -40 10 -18 -5 -23 -3 -19 8 3 8 1
17 -5 21 -6 3 -14 -1 -17 -9 -9 -24 -74 -21 -81 3 -5 20 -31 18 -45 -3 -4 -6
-8 -1 -8 12 0 13 -6 22 -16 22 -8 0 -12 -4 -9 -10 9 -14 -7 -12 -27 4 -10 7
-15 16 -11 19 3 4 -3 7 -15 7 -26 0 -52 28 -69 73 l-11 32 -1 -32 c-1 -35 -21
-47 -21 -12 0 11 -4 17 -10 14 -5 -3 -10 1 -10 10 0 9 -5 15 -12 13 -19 -7
-60 41 -53 63 4 13 2 19 -9 19 -15 0 -17 5 -20 38 -1 7 -8 17 -16 22 -8 5 -15
17 -15 27 0 10 -6 17 -12 16 -7 -2 -19 10 -28 27 -13 26 -14 29 0 24 10 -4 15
0 15 15 0 12 -5 21 -11 21 -7 0 -9 10 -7 25 4 17 1 25 -9 25 -9 0 -12 7 -7 25
4 16 0 30 -10 40 -21 21 -20 51 1 59 11 5 13 10 7 14 -14 9 -27 62 -15 62 5 0
11 -6 14 -12 2 -7 8 -9 13 -5 5 4 4 11 -2 15 -19 13 -34 72 -24 92 6 10 10 30
10 44 0 14 4 26 10 26 15 0 35 43 21 48 -21 7 -12 30 10 25 18 -5 20 -2 16 26
-5 27 -3 31 12 26 16 -5 19 2 25 45 5 35 11 50 22 50 11 0 13 6 9 20 -5 15 -2
20 12 22 10 0 25 2 33 2 8 1 14 8 12 15 -1 7 3 19 9 27 9 11 8 14 -1 14 -8 0
-11 2 -8 5 3 3 17 1 32 -5 27 -10 27 -9 21 20 -5 23 -3 30 9 30 9 0 16 -5 16
-11 0 -5 5 -7 10 -4 6 3 10 17 10 31 0 16 6 24 18 24 10 0 23 5 30 12 9 9 12
9 12 0 0 -7 5 -12 10 -12 6 0 10 7 10 15 0 8 5 15 11 15 6 0 8 7 5 16 -5 13
-2 15 14 11 21 -5 40 2 90 35 32 20 154 42 158 28 6 -16 22 -12 22 5 0 11 12
15 44 15 25 0 48 5 51 10 3 6 15 10 26 10 10 0 19 -4 19 -10z m-8151 -616 c11
7 51 -12 63 -29 5 -6 8 -4 8 4 0 10 7 7 25 -9 18 -17 23 -30 19 -47 -5 -18 -3
-22 10 -17 13 5 16 -1 16 -36 0 -24 -5 -72 -12 -109 -12 -64 -21 -79 -73 -115
-16 -12 -17 -16 -6 -30 11 -13 11 -21 -2 -48 -40 -85 -64 -181 -68 -270 0 -10
-4 -18 -10 -18 -5 0 -9 -4 -9 -10 0 -5 6 -10 13 -10 9 0 12 -18 12 -62 0 -41
6 -76 17 -100 10 -20 18 -42 18 -48 0 -5 4 -18 9 -28 5 -9 17 -36 26 -59 10
-23 24 -44 32 -47 8 -3 12 -10 8 -15 -3 -6 4 -15 15 -21 11 -6 20 -16 20 -22
0 -20 65 -97 82 -98 9 0 18 -3 20 -7 2 -5 20 -17 41 -27 22 -12 37 -26 37 -38
0 -10 7 -18 15 -18 8 0 15 -9 15 -20 0 -13 5 -18 15 -14 10 4 14 -2 14 -23 0
-15 2 -48 3 -73 3 -37 -1 -49 -22 -68 -22 -21 -25 -22 -30 -6 -6 16 -7 16 -13
1 -3 -9 -14 -17 -23 -17 -10 0 -14 -5 -10 -15 3 -8 0 -15 -7 -15 -8 0 -6 -4 3
-10 13 -8 12 -10 -4 -10 -11 0 -16 -5 -13 -14 4 -10 0 -12 -15 -8 -17 4 -19 1
-14 -16 6 -17 -3 -25 -65 -56 -80 -40 -94 -43 -103 -21 -6 17 -56 21 -56 5 0
-5 5 -10 11 -10 8 0 8 -5 -1 -15 -17 -20 -27 -19 -35 5 -8 25 -25 26 -25 2 0
-27 -7 -31 -48 -21 -23 5 -38 4 -40 -1 -6 -16 -34 -11 -48 8 -12 15 -13 15
-14 1 0 -14 -8 -16 -47 -11 -27 3 -51 9 -54 15 -4 5 -14 7 -23 4 -10 -4 -25 2
-37 14 -15 15 -24 18 -31 11 -8 -8 -26 -5 -61 8 -28 11 -53 17 -57 15 -11 -7
-90 34 -97 50 -3 8 -15 15 -28 15 -24 0 -49 22 -38 34 4 4 0 4 -9 1 -15 -6
-58 28 -58 46 0 4 -9 9 -20 12 -14 4 -18 10 -13 23 5 14 3 16 -11 11 -22 -8
-52 25 -62 67 -5 22 -8 25 -15 15 -7 -9 -7 -5 -3 14 4 17 2 27 -5 27 -6 0 -11
7 -11 16 0 10 -5 14 -15 10 -13 -4 -14 -2 -5 14 9 17 8 20 -9 20 -21 0 -48 60
-36 80 3 5 -1 10 -9 10 -19 0 -21 21 -3 39 10 11 9 13 -4 8 -12 -4 -21 5 -34
32 -9 21 -16 44 -14 52 1 8 -1 26 -5 41 -5 16 -3 42 4 64 7 20 8 39 4 43 -11
7 -11 32 -1 49 5 6 5 32 2 56 -6 41 -5 45 16 48 12 2 24 10 26 18 4 13 3 13
-6 0 -13 -18 -13 -15 -1 79 6 41 16 81 24 90 8 9 16 27 18 40 1 14 9 26 17 29
8 3 11 0 7 -6 -3 -6 -2 -13 4 -17 6 -4 10 5 10 20 0 15 -4 24 -10 20 -14 -9
-12 1 5 35 9 17 20 30 25 30 6 0 10 7 10 16 0 10 6 14 15 11 8 -4 17 -2 20 3
4 6 1 10 -4 10 -6 0 -11 6 -11 14 0 16 42 46 65 46 10 0 15 10 15 31 0 25 3
30 16 25 11 -4 15 -2 11 8 -3 8 5 19 20 27 21 11 27 11 30 2 3 -7 9 -13 15
-13 6 0 8 6 5 14 -3 8 -3 17 1 21 4 4 7 10 7 13 0 24 105 89 134 83 7 -1 10 2
6 8 -3 6 1 11 9 11 8 0 20 8 25 18 6 9 11 13 11 8 0 -5 7 -2 17 5 13 11 17 11
20 2 3 -7 9 -13 14 -13 4 0 6 7 3 15 -4 10 0 15 14 15 11 0 22 5 24 11 2 6 18
12 36 13 17 1 37 7 43 13 9 9 16 10 25 2 10 -8 18 -7 29 4 27 28 185 50 185
27 0 -5 5 -10 10 -10 6 0 10 7 10 16 0 13 3 14 15 4 8 -6 19 -9 24 -6z m8421
-734 c0 -5 -8 -10 -17 -10 -15 0 -16 2 -3 10 19 12 20 12 20 0z m130 -1581 c0
-6 -4 -7 -10 -4 -5 3 -10 11 -10 16 0 6 5 7 10 4 6 -3 10 -11 10 -16z m-9345
-1969 c3 -5 1 -10 -4 -10 -6 0 -11 5 -11 10 0 6 2 10 4 10 3 0 8 -4 11 -10z
m802 -1906 c-3 -3 -12 -4 -19 -1 -8 3 -5 6 6 6 11 1 17 -2 13 -5z m-1390
-1496 c-3 -8 -6 -5 -6 6 -1 11 2 17 5 13 3 -3 4 -12 1 -19z m248 -558 c3 -5 1
-10 -4 -10 -6 0 -11 5 -11 10 0 6 2 10 4 10 3 0 8 -4 11 -10z m90 -80 c3 -5 1
-10 -4 -10 -6 0 -11 5 -11 10 0 6 2 10 4 10 3 0 8 -4 11 -10z"/>
<path d="M5896 10008 c-35 -50 -12 -98 47 -98 54 0 77 74 32 104 -34 22 -61
20 -79 -6z"/>
<path d="M6559 9979 c-24 -24 -24 -51 -1 -72 39 -35 102 -12 102 37 0 46 -67
69 -101 35z"/>
<path d="M10355 9790 c3 -5 8 -10 11 -10 2 0 4 5 4 10 0 6 -5 10 -11 10 -5 0
-7 -4 -4 -10z"/>
<path d="M9570 9595 c0 -8 2 -15 4 -15 2 0 6 7 10 15 3 8 1 15 -4 15 -6 0 -10
-7 -10 -15z"/>
<path d="M9520 9560 c0 -5 5 -10 10 -10 6 0 10 5 10 10 0 6 -4 10 -10 10 -5 0
-10 -4 -10 -10z"/>
<path d="M10331 9396 c-7 -8 -9 -21 -5 -27 5 -9 10 -5 16 11 10 28 5 36 -11
16z"/>
<path d="M9440 9370 c0 -5 5 -10 10 -10 6 0 10 5 10 10 0 6 -4 10 -10 10 -5 0
-10 -4 -10 -10z"/>
<path d="M9426 9241 c-4 -7 -5 -15 -2 -18 9 -9 19 4 14 18 -4 11 -6 11 -12 0z"/>
<path d="M9380 9120 c0 -5 5 -10 11 -10 5 0 7 5 4 10 -3 6 -8 10 -11 10 -2 0
-4 -4 -4 -10z"/>
<path d="M9380 9074 c0 -9 5 -14 12 -12 18 6 21 28 4 28 -9 0 -16 -7 -16 -16z"/>
<path d="M9401 9024 c0 -11 3 -14 6 -6 3 7 2 16 -1 19 -3 4 -6 -2 -5 -13z"/>
<path d="M9505 8960 c4 -6 11 -8 16 -5 14 9 11 15 -7 15 -8 0 -12 -5 -9 -10z"/>
<path d="M9520 8770 c0 -5 5 -10 11 -10 5 0 7 5 4 10 -3 6 -8 10 -11 10 -2 0
-4 -4 -4 -10z"/>
<path d="M10300 8509 c0 -5 5 -7 10 -4 6 3 10 8 10 11 0 2 -4 4 -10 4 -5 0
-10 -5 -10 -11z"/>
<path d="M10095 8500 c4 -6 11 -8 16 -5 14 9 11 15 -7 15 -8 0 -12 -5 -9 -10z"/>
<path d="M10195 8490 c-3 -5 -1 -10 4 -10 6 0 11 5 11 10 0 6 -2 10 -4 10 -3
0 -8 -4 -11 -10z"/>
<path d="M1950 9230 c0 -5 5 -10 10 -10 6 0 10 5 10 10 0 6 -4 10 -10 10 -5 0
-10 -4 -10 -10z"/>
<path d="M1995 9211 c-6 -11 9 -23 19 -14 9 9 7 23 -3 23 -6 0 -12 -4 -16 -9z"/>
<path d="M1992 8760 c0 -14 2 -19 5 -12 2 6 2 18 0 25 -3 6 -5 1 -5 -13z"/>
<path d="M1055 8590 c-3 -5 1 -10 9 -10 9 0 16 5 16 10 0 6 -4 10 -9 10 -6 0
-13 -4 -16 -10z"/>
<path d="M1115 8231 c-3 -5 -1 -12 5 -16 5 -3 10 1 10 9 0 18 -6 21 -15 7z"/>
<path d="M1031 8204 c0 -11 3 -14 6 -6 3 7 2 16 -1 19 -3 4 -6 -2 -5 -13z"/>
<path d="M2315 7910 c3 -5 8 -10 11 -10 2 0 4 5 4 10 0 6 -5 10 -11 10 -5 0
-7 -4 -4 -10z"/>
<path d="M2340 7755 c0 -8 5 -15 10 -15 6 0 10 7 10 15 0 8 -4 15 -10 15 -5 0
-10 -7 -10 -15z"/>
<path d="M2235 7669 c-9 -14 -2 -20 14 -10 8 6 9 11 3 15 -6 3 -14 1 -17 -5z"/>
<path d="M6951 8964 c0 -11 3 -14 6 -6 3 7 2 16 -1 19 -3 4 -6 -2 -5 -13z"/>
<path d="M7147 8940 c3 -11 9 -17 15 -14 5 3 4 12 -3 20 -16 19 -18 18 -12 -6z"/>
<path d="M6040 8919 c0 -5 5 -7 10 -4 6 3 10 8 10 11 0 2 -4 4 -10 4 -5 0 -10
-5 -10 -11z"/>
<path d="M5997 8903 c-4 -3 -7 -13 -7 -22 1 -13 3 -13 11 2 11 19 8 33 -4 20z"/>
<path d="M6316 8885 c-3 -8 -1 -15 4 -15 6 0 10 7 10 15 0 8 -2 15 -4 15 -2 0
-6 -7 -10 -15z"/>
<path d="M6260 8875 c0 -8 4 -15 10 -15 5 0 7 7 4 15 -4 8 -8 15 -10 15 -2 0
-4 -7 -4 -15z"/>
<path d="M4870 8866 c0 -9 7 -16 16 -16 17 0 14 22 -4 28 -7 2 -12 -3 -12 -12z"/>
<path d="M4840 8840 c0 -5 5 -10 10 -10 6 0 10 5 10 10 0 6 -4 10 -10 10 -5 0
-10 -4 -10 -10z"/>
<path d="M6005 8820 c-3 -5 1 -10 9 -10 9 0 16 5 16 10 0 6 -4 10 -9 10 -6 0
-13 -4 -16 -10z"/>
<path d="M5945 8811 c-3 -5 -1 -12 5 -16 6 -4 8 -12 4 -18 -3 -7 1 -3 10 7 15
19 13 36 -4 36 -5 0 -11 -4 -15 -9z"/>
<path d="M5915 8800 c-3 -5 -1 -10 4 -10 6 0 11 5 11 10 0 6 -2 10 -4 10 -3 0
-8 -4 -11 -10z"/>
<path d="M9595 7860 c3 -5 8 -10 11 -10 2 0 4 5 4 10 0 6 -5 10 -11 10 -5 0
-7 -4 -4 -10z"/>
<path d="M9595 7830 c3 -5 10 -10 16 -10 5 0 9 5 9 10 0 6 -7 10 -16 10 -8 0
-12 -4 -9 -10z"/>
<path d="M9890 7660 c0 -5 5 -10 10 -10 6 0 10 5 10 10 0 6 -4 10 -10 10 -5 0
-10 -4 -10 -10z"/>
<path d="M6535 6659 c-89 -13 -214 -84 -239 -136 -21 -45 -20 -63 7 -95 45
-55 188 -53 370 5 91 29 117 49 117 88 0 44 -37 105 -73 122 -40 19 -116 26
-182 16z"/>
<path d="M1950 6639 c0 -5 5 -7 10 -4 6 3 10 8 10 11 0 2 -4 4 -10 4 -5 0 -10
-5 -10 -11z"/>
<path d="M10603 6612 c-14 -33 -13 -37 3 -49 10 -7 13 -13 8 -13 -6 0 -11 -7
-11 -15 0 -16 1 -16 32 -20 11 -2 28 -6 38 -10 12 -5 17 -2 17 10 0 9 5 13 10
10 6 -3 10 3 10 14 0 11 4 22 9 25 12 8 1 47 -18 66 -8 8 -30 15 -49 16 -30 1
-36 -3 -49 -34z"/>
<path d="M1920 6579 c0 -11 4 -18 10 -14 5 3 7 12 3 20 -7 21 -13 19 -13 -6z"/>
<path d="M1887 6544 c-8 -8 3 -34 14 -34 11 0 12 27 0 34 -4 3 -11 3 -14 0z"/>
<path d="M9496 6412 c-3 -6 -1 -14 5 -17 14 -9 20 -2 10 14 -6 8 -11 9 -15 3z"/>
<path d="M9620 6060 c0 -5 5 -10 10 -10 6 0 10 5 10 10 0 6 -4 10 -10 10 -5 0
-10 -4 -10 -10z"/>
<path d="M10285 5730 c-3 -5 1 -10 9 -10 9 0 16 5 16 10 0 6 -4 10 -9 10 -6 0
-13 -4 -16 -10z"/>
<path d="M3720 5723 c-119 -42 -300 -156 -300 -189 0 -6 -6 -17 -14 -23 -19
-16 -26 -91 -8 -91 7 0 11 -3 9 -7 -3 -5 1 -14 9 -21 8 -7 14 -10 14 -7 0 3
22 -3 49 -14 27 -10 55 -15 62 -11 7 5 18 6 26 3 8 -3 21 1 31 9 9 8 32 21 50
28 18 7 38 21 45 30 12 17 17 20 38 20 5 0 7 5 4 10 -3 6 0 10 8 10 23 0 96
58 117 92 28 46 18 128 -16 128 -8 0 -14 4 -14 9 0 19 -76 36 -110 24z"/>
<path d="M268 5306 c-21 -15 -24 -66 -6 -84 13 -13 56 -16 82 -6 18 7 23 79 5
89 -21 14 -65 14 -81 1z"/>
<path d="M782 5298 c-7 -7 -12 -27 -12 -45 0 -29 3 -33 37 -39 20 -4 43 -2 52
3 20 13 22 60 4 79 -18 17 -65 18 -81 2z"/>
<path d="M1810 5280 c0 -5 5 -10 10 -10 6 0 10 5 10 10 0 6 -4 10 -10 10 -5 0
-10 -4 -10 -10z"/>
<path d="M1775 5230 c-3 -5 -1 -10 4 -10 6 0 11 5 11 10 0 6 -2 10 -4 10 -3 0
-8 -4 -11 -10z"/>
<path d="M1821 5224 c0 -11 3 -14 6 -6 3 7 2 16 -1 19 -3 4 -6 -2 -5 -13z"/>
<path d="M10791 4974 c0 -11 3 -14 6 -6 3 7 2 16 -1 19 -3 4 -6 -2 -5 -13z"/>
<path d="M1270 3581 c0 -6 4 -13 10 -16 6 -3 7 1 4 9 -7 18 -14 21 -14 7z"/>
<path d="M4782 3150 c-43 -10 -52 -19 -62 -66 -15 -67 30 -111 104 -100 62 10
82 64 51 140 -16 38 -28 42 -93 26z"/>
<path d="M2018 3113 c7 -3 16 -2 19 1 4 3 -2 6 -13 5 -11 0 -14 -3 -6 -6z"/>
<path d="M4318 3060 c-14 -4 -38 -16 -52 -26 -23 -17 -25 -26 -26 -85 0 -64 1
-68 35 -98 29 -25 44 -31 83 -31 28 0 64 8 87 20 22 11 44 20 50 20 6 0 19 16
28 35 9 19 21 35 26 35 12 0 -3 63 -22 90 -8 12 -27 28 -42 36 -29 15 -123 17
-167 4z m114 -77 c24 -21 23 -50 -1 -63 -29 -15 -87 -12 -101 5 -37 45 57 99
102 58z"/>
<path d="M3783 3038 c-25 -28 -35 -56 -23 -63 5 -3 12 -25 15 -49 6 -40 10
-44 42 -49 19 -3 56 -3 83 0 47 5 50 8 66 49 22 58 7 108 -38 123 -55 19 -122
14 -145 -11z"/>
<path d="M3745 2920 c3 -5 8 -10 11 -10 2 0 4 5 4 10 0 6 -5 10 -11 10 -5 0
-7 -4 -4 -10z"/>
<path d="M5119 2820 c-19 -10 -43 -23 -55 -28 -25 -12 -64 -98 -64 -143 0 -17
12 -53 26 -79 22 -40 32 -49 62 -54 111 -18 172 1 230 72 29 36 37 54 37 86 0
54 -32 99 -93 129 -70 35 -103 39 -143 17z"/>
<path d="M3629 2629 c-67 -23 -109 -67 -109 -113 0 -21 6 -36 16 -40 8 -3 13
-10 10 -15 -4 -5 -3 -16 0 -25 5 -13 9 -14 20 -5 11 9 14 6 14 -15 0 -17 5
-26 16 -26 9 0 14 -6 11 -13 -3 -7 12 -32 34 -55 45 -50 70 -53 166 -20 78 26
109 61 119 135 6 45 3 55 -18 85 -14 18 -28 41 -31 50 -8 22 -100 64 -153 71
-26 3 -61 -2 -95 -14z"/>
<path d="M1800 2501 c0 -25 6 -27 13 -6 4 8 2 17 -3 20 -6 4 -10 -3 -10 -14z"/>
<path d="M3566 2365 c-3 -8 -1 -15 4 -15 6 0 10 7 10 15 0 8 -2 15 -4 15 -2 0
-6 -7 -10 -15z"/>
<path d="M1790 2310 c0 -5 5 -10 11 -10 5 0 7 5 4 10 -3 6 -8 10 -11 10 -2 0
-4 -4 -4 -10z"/>
<path d="M5552 2278 c6 -16 36 -34 44 -26 8 9 -20 38 -36 38 -6 0 -10 -5 -8
-12z"/>
<path d="M5498 2211 c-5 -18 -10 -22 -20 -14 -26 20 -46 21 -65 4 -10 -10 -31
-21 -45 -24 -22 -6 -27 -3 -31 15 l-4 23 -8 -22 c-11 -34 -35 -37 -36 -5 -2
23 -2 24 -6 5 -2 -13 -11 -24 -19 -24 -8 -1 -20 -2 -26 -3 -7 -1 -16 -5 -19
-10 -10 -13 -29 3 -22 19 8 22 -20 18 -39 -4 -16 -18 -16 -20 0 -25 9 -2 1 -4
-18 -3 -24 1 -34 -3 -32 -11 1 -8 -5 -13 -15 -12 -42 5 -55 0 -49 -16 5 -12 2
-15 -12 -12 -11 3 -35 -7 -57 -23 -26 -20 -41 -25 -46 -18 -4 8 -10 5 -18 -9
-6 -11 -23 -24 -38 -30 -16 -6 -40 -22 -55 -37 l-28 -26 -1 28 c-1 32 -5 24
-14 -29 -4 -27 -10 -36 -20 -31 -9 3 -15 -1 -15 -11 0 -9 -3 -15 -7 -15 -25 4
-43 -3 -43 -17 0 -10 6 -14 15 -10 12 4 13 2 3 -14 -7 -10 -16 -16 -20 -14 -5
3 -7 -29 -6 -72 3 -65 6 -79 23 -88 11 -6 31 -22 44 -36 14 -14 36 -26 49 -27
14 -1 29 -7 32 -14 4 -6 12 -9 18 -5 12 7 64 -18 55 -27 -10 -11 27 -8 48 3
15 9 21 7 25 -5 3 -8 13 -15 21 -15 8 0 12 4 9 9 -3 5 13 8 36 7 23 -1 44 -8
46 -14 6 -18 22 -15 22 4 0 12 5 14 18 9 35 -15 65 -18 58 -6 -4 6 -3 11 3 11
5 0 11 -5 13 -12 3 -9 14 -8 39 5 20 9 54 19 76 23 36 5 43 3 53 -16 9 -17 14
-19 26 -9 8 6 14 17 14 24 0 7 7 15 15 19 8 3 14 1 12 -3 -1 -5 1 -9 6 -10 4
-1 7 2 6 6 -2 13 75 46 79 34 2 -6 8 -11 13 -11 4 0 6 6 3 14 -8 20 14 30 31
16 12 -10 15 -9 15 10 0 15 4 20 15 16 8 -3 14 0 12 6 -1 6 4 13 11 15 7 3 10
-1 6 -10 -3 -8 -1 -18 5 -22 6 -3 11 0 11 7 0 9 3 9 10 -2 6 -9 10 -10 10 -3
0 6 -5 15 -11 18 -11 7 11 26 43 38 14 5 15 1 7 -26 -12 -43 -11 -70 2 -61 6
3 8 15 6 26 -4 12 -1 18 6 15 7 -3 13 6 13 20 2 32 13 41 24 23 7 -11 10 -8
11 15 1 17 2 36 3 44 1 17 26 28 26 12 0 -6 5 -11 10 -11 6 0 10 9 10 20 0 14
7 20 21 20 11 0 17 4 14 10 -3 5 7 34 23 63 38 69 57 128 45 136 -6 3 -15 16
-21 28 -9 16 -9 23 1 27 6 3 2 3 -9 1 -17 -4 -23 0 -26 20 -3 14 -1 25 5 25 6
0 7 3 3 7 -4 5 -14 0 -21 -10 -8 -11 -16 -14 -19 -8 -4 6 -27 19 -51 30 -29
13 -45 26 -45 38 0 15 -2 15 -9 3 -6 -8 -7 -18 -5 -22 3 -4 0 -8 -5 -8 -6 0
-11 4 -11 9 0 5 -17 9 -37 8 -24 -1 -37 2 -36 9 1 7 -7 14 -17 17 -14 4 -20 0
-21 -11 0 -11 -4 -9 -10 7 -7 19 -12 22 -21 13 -18 -18 -56 -15 -60 6 -3 13
-5 12 -10 -7z"/>
<path d="M5530 2219 c0 -5 5 -7 10 -4 6 3 10 8 10 11 0 2 -4 4 -10 4 -5 0 -10
-5 -10 -11z"/>
<path d="M930 2206 c0 -9 5 -16 10 -16 6 0 10 4 10 9 0 6 -4 13 -10 16 -5 3
-10 -1 -10 -9z"/>
<path d="M1770 2195 c0 -8 -6 -15 -13 -15 -7 0 -52 -38 -101 -85 -49 -47 -90
-85 -93 -85 -9 0 -69 -75 -76 -96 -5 -13 -15 -24 -22 -24 -7 0 -13 -10 -13
-22 -1 -51 -14 -89 -28 -84 -11 4 -12 1 -6 -12 5 -9 10 -60 11 -112 2 -92 3
-96 42 -156 69 -106 159 -184 214 -184 16 0 25 -6 25 -15 0 -8 6 -15 14 -15 8
0 22 -7 30 -16 11 -11 16 -12 16 -3 0 10 3 10 12 1 19 -19 28 -14 28 14 0 18
4 25 14 21 9 -4 16 3 19 18 2 14 0 22 -4 19 -5 -3 -9 2 -9 11 0 21 49 107 68
118 7 5 12 18 11 30 -2 38 1 47 14 41 9 -3 19 14 30 55 9 34 17 69 17 79 0 21
-44 74 -54 65 -10 -10 -7 7 5 28 9 17 7 21 -10 26 -26 7 -27 20 -3 26 16 4 16
5 0 6 -12 1 -18 9 -18 26 0 14 -4 25 -10 25 -5 0 -10 7 -10 17 0 9 -3 13 -6
10 -10 -10 -54 90 -54 121 0 15 -7 49 -15 77 -9 27 -13 62 -9 77 3 17 1 28 -5
28 -6 0 -11 -7 -11 -15z"/>
<path d="M5097 2193 c-4 -7 -14 -10 -22 -6 -18 6 -20 -11 -2 -25 17 -15 40 1
35 24 -2 13 -6 15 -11 7z"/>
<path d="M4920 2100 c0 -5 7 -10 16 -10 8 0 12 5 9 10 -3 6 -10 10 -16 10 -5
0 -9 -4 -9 -10z"/>
<path d="M3960 2030 c0 -6 -38 -10 -97 -9 -100 1 -137 -6 -127 -22 3 -5 0 -9
-7 -9 -8 0 -10 -14 -7 -45 4 -36 2 -45 -9 -45 -12 0 -14 -7 -8 -32 14 -66 9
-153 -11 -172 -8 -9 -12 -16 -8 -16 3 0 1 -6 -5 -14 -6 -7 -9 -21 -5 -30 4
-10 0 -18 -10 -22 -9 -3 -16 -10 -16 -16 0 -5 -16 -30 -35 -56 -42 -54 -43
-86 -2 -90 15 -2 32 -12 38 -23 6 -12 15 -17 22 -12 17 10 161 3 165 -8 5 -12
29 -12 34 0 2 5 55 11 118 12 67 2 125 8 140 16 19 10 26 10 32 0 6 -9 8 -9 8
1 0 10 8 12 30 7 17 -4 30 -3 29 2 -3 20 2 27 11 13 6 -10 10 -11 10 -2 0 6 9
12 19 12 11 0 23 5 26 11 4 6 13 8 20 5 7 -2 16 1 18 8 3 8 18 17 34 20 43 11
95 47 89 62 -3 7 2 27 11 44 8 17 13 40 10 51 -3 10 -1 17 3 14 15 -9 22 15
10 30 -7 8 -12 31 -12 52 0 21 -3 32 -5 26 -7 -20 -23 -15 -23 7 0 12 -5 17
-14 14 -8 -3 -18 6 -25 24 -9 22 -17 28 -32 25 -15 -4 -18 -2 -12 12 4 12 3
16 -5 11 -6 -4 -19 -2 -29 3 -10 5 -33 15 -50 21 -18 7 -33 19 -33 27 0 10 -6
13 -16 9 -9 -3 -64 10 -123 30 -58 21 -114 37 -124 36 -12 -1 -17 4 -13 14 3
8 1 14 -4 14 -6 0 -10 -5 -10 -10z"/>
<path d="M1852 1960 c0 -14 2 -19 5 -12 2 6 2 18 0 25 -3 6 -5 1 -5 -13z"/>
<path d="M1866 1931 c-3 -5 1 -11 9 -15 8 -3 15 -1 15 4 0 13 -18 22 -24 11z"/>
<path d="M5908 1833 c6 -2 18 -2 25 0 6 3 1 5 -13 5 -14 0 -19 -2 -12 -5z"/>
<path d="M1940 1810 c0 -5 5 -10 10 -10 6 0 10 5 10 10 0 6 -4 10 -10 10 -5 0
-10 -4 -10 -10z"/>
<path d="M5840 1750 c0 -5 5 -10 11 -10 5 0 7 5 4 10 -3 6 -8 10 -11 10 -2 0
-4 -4 -4 -10z"/>
<path d="M5750 1680 c0 -6 5 -8 10 -5 6 3 10 -1 10 -9 0 -9 -4 -16 -10 -16 -5
0 -10 -7 -10 -16 0 -14 1 -14 16 0 8 9 14 24 12 33 -3 19 -28 31 -28 13z"/>
<path d="M4750 1591 c0 -6 5 -13 10 -16 6 -3 10 1 10 9 0 9 -4 16 -10 16 -5 0
-10 -4 -10 -9z"/>
<path d="M4707 1571 c-3 -11 1 -26 9 -32 21 -18 26 -6 10 25 -12 25 -14 25
-19 7z"/>
<path d="M5586 1561 c-3 -5 1 -14 8 -20 12 -10 13 -8 9 8 -6 23 -9 25 -17 12z"/>
<path d="M4760 1545 c0 -8 5 -15 10 -15 6 0 10 7 10 15 0 8 -4 15 -10 15 -5 0
-10 -7 -10 -15z"/>
<path d="M5260 1550 c0 -5 5 -10 10 -10 6 0 10 5 10 10 0 6 -4 10 -10 10 -5 0
-10 -4 -10 -10z"/>
<path d="M5389 1523 c-8 -9 -9 -14 -2 -10 7 4 13 0 16 -10 3 -11 5 -8 6 10 1
32 -2 33 -20 10z"/>
<path d="M5241 1511 c-9 -6 -10 -11 -2 -15 13 -8 31 1 31 15 0 11 -11 11 -29
0z"/>
<path d="M5292 1500 c0 -14 2 -19 5 -12 2 6 2 18 0 25 -3 6 -5 1 -5 -13z"/>
<path d="M5312 1500 c0 -14 2 -19 5 -12 2 6 2 18 0 25 -3 6 -5 1 -5 -13z"/>
<path d="M730 1500 c0 -5 5 -10 10 -10 6 0 10 5 10 10 0 6 -4 10 -10 10 -5 0
-10 -4 -10 -10z"/>
<path d="M5153 1495 c-8 -22 6 -33 17 -15 13 20 12 30 0 30 -6 0 -13 -7 -17
-15z"/>
<path d="M5000 1490 c0 -5 4 -10 9 -10 6 0 13 5 16 10 3 6 -1 10 -9 10 -9 0
-16 -4 -16 -10z"/>
<path d="M4940 1472 c0 -10 6 -19 14 -19 8 0 11 8 8 19 -2 10 -8 18 -13 18 -5
0 -9 -8 -9 -18z"/>
<path d="M4320 1450 c0 -5 5 -10 10 -10 6 0 10 5 10 10 0 6 -4 10 -10 10 -5 0
-10 -4 -10 -10z"/>
<path d="M5050 1450 c0 -5 5 -10 10 -10 6 0 10 5 10 10 0 6 -4 10 -10 10 -5 0
-10 -4 -10 -10z"/>
<path d="M4125 1410 c-8 -13 4 -32 16 -25 12 8 12 35 0 35 -6 0 -13 -4 -16
-10z"/>
<path d="M706 1391 c-4 -5 -2 -12 3 -15 5 -4 12 -2 15 3 4 5 2 12 -3 15 -5 4
-12 2 -15 -3z"/>
<path d="M3655 1390 c3 -5 8 -10 11 -10 2 0 4 5 4 10 0 6 -5 10 -11 10 -5 0
-7 -4 -4 -10z"/>
<path d="M4320 1390 c0 -5 5 -10 10 -10 6 0 10 5 10 10 0 6 -4 10 -10 10 -5 0
-10 -4 -10 -10z"/>
<path d="M728 1353 c6 -2 18 -2 25 0 6 3 1 5 -13 5 -14 0 -19 -2 -12 -5z"/>
<path d="M4195 1350 c3 -5 8 -10 11 -10 2 0 4 5 4 10 0 6 -5 10 -11 10 -5 0
-7 -4 -4 -10z"/>
<path d="M4110 1340 c0 -5 7 -10 16 -10 8 0 12 5 9 10 -3 6 -10 10 -16 10 -5
0 -9 -4 -9 -10z"/>
<path d="M735 1331 c-3 -5 -1 -12 5 -16 5 -3 10 1 10 9 0 18 -6 21 -15 7z"/>
<path d="M1610 1321 c0 -5 7 -14 15 -21 16 -14 18 -10 9 14 -6 17 -24 22 -24
7z"/>
<path d="M4000 1304 c0 -8 5 -12 10 -9 6 3 10 10 10 16 0 5 -4 9 -10 9 -5 0
-10 -7 -10 -16z"/>
<path d="M840 1215 c0 -8 5 -15 10 -15 6 0 10 7 10 15 0 8 -4 15 -10 15 -5 0
-10 -7 -10 -15z"/>
<path d="M791 1134 c0 -11 3 -14 6 -6 3 7 2 16 -1 19 -3 4 -6 -2 -5 -13z"/>
<path d="M1048 1053 c7 -3 16 -2 19 1 4 3 -2 6 -13 5 -11 0 -14 -3 -6 -6z"/>
<path d="M1016 981 c-11 -20 -13 -32 -6 -29 6 2 11 7 10 12 -1 5 4 12 10 16 7
4 10 14 8 21 -3 9 -11 1 -22 -20z"/>
<path d="M1076 946 c10 -8 21 -12 24 -10 5 6 -21 24 -34 24 -6 0 -1 -6 10 -14z"/>
<path d="M1741 784 c0 -11 3 -14 6 -6 3 7 2 16 -1 19 -3 4 -6 -2 -5 -13z"/>
<path d="M4350 393 c14 -3 34 -12 45 -21 20 -17 20 -17 1 6 -12 13 -29 21 -45
21 l-26 -2 25 -4z"/>
<path d="M4188 283 c7 -3 16 -2 19 1 4 3 -2 6 -13 5 -11 0 -14 -3 -6 -6z"/>
<path d="M4231 286 c2 -2 20 -6 39 -10 25 -4 31 -3 20 4 -14 9 -69 15 -59 6z"/>
<path d="M4119 243 c-13 -16 -12 -17 4 -4 16 13 21 21 13 21 -2 0 -10 -8 -17
-17z"/>
<path d="M4176 211 c-4 -5 3 -7 14 -4 23 6 26 13 6 13 -8 0 -17 -4 -20 -9z"/>
<path d="M4110 156 c0 -3 9 -10 20 -16 11 -6 20 -8 20 -6 0 3 -9 10 -20 16
-11 6 -20 8 -20 6z"/>
<path d="M4168 123 c7 -3 16 -2 19 1 4 3 -2 6 -13 5 -11 0 -14 -3 -6 -6z"/>
<path d="M4278 123 c7 -3 16 -2 19 1 4 3 -2 6 -13 5 -11 0 -14 -3 -6 -6z"/>
<path d="M4218 113 c7 -3 16 -2 19 1 4 3 -2 6 -13 5 -11 0 -14 -3 -6 -6z"/>
</g>
</svg>
